<?xml version="1.0" standalone="no"?>
<!DOCTYPE svg PUBLIC "-//W3C//DTD SVG 20010904//EN"
 "http://www.w3.org/TR/2001/REC-SVG-20010904/DTD/svg10.dtd">
<svg version="1.0" xmlns="http://www.w3.org/2000/svg"
 width="512.000000pt" height="512.000000pt" viewBox="0 0 512.000000 512.000000"
 preserveAspectRatio="xMidYMid meet">
<metadata>
Created by potrace 1.16, written by Peter Selinger 2001-2019
</metadata>
<g transform="translate(0.000000,512.000000) scale(0.100000,-0.100000)"
fill="#000000" stroke="none">
<path d="M2191 3307 c-15 -15 -16 -850 -1 -878 6 -10 17 -19 25 -19 22 0 23
895 1 903 -7 3 -19 0 -25 -6z"/>
<path d="M1552 3278 c-7 -7 -12 -20 -12 -29 0 -38 27 -44 216 -49 203 -6 206
-6 268 -84 26 -31 31 -47 34 -105 6 -104 -20 -141 -110 -156 -43 -7 -52 -17
-44 -51 6 -21 12 -24 49 -24 58 0 145 45 175 89 93 142 21 338 -148 402 -43
16 -78 19 -233 19 -129 0 -187 -4 -195 -12z"/>
<path d="M2298 3284 c-5 -4 -8 -139 -8 -300 0 -263 2 -298 20 -356 26 -85 84
-151 165 -189 94 -45 177 -36 236 27 l22 24 -64 0 c-196 0 -323 197 -256 396
21 61 78 131 124 150 54 23 141 18 201 -12 95 -47 142 -131 142 -255 0 -102
-41 -179 -130 -242 -14 -10 4 -3 40 16 104 54 150 136 150 269 0 122 -57 225
-152 272 -72 36 -180 37 -256 1 -70 -32 -159 -118 -188 -180 l-24 -50 -1 60
c-5 205 -15 376 -21 369z"/>
<path d="M3115 3156 c-16 -8 -42 -26 -57 -42 -51 -54 -61 -96 -68 -269 -5
-145 -8 -165 -32 -217 -34 -73 -106 -150 -171 -184 -37 -19 -44 -24 -22 -19
55 12 149 72 213 136 l62 62 0 -94 c0 -98 7 -120 43 -133 12 -4 27 3 43 19 24
24 24 25 24 225 l0 200 213 0 c116 0 218 4 225 9 8 5 12 17 10 27 -3 18 -18
19 -228 24 l-225 5 1 63 c1 46 6 68 20 83 38 43 72 49 278 49 187 0 196 1 206
21 9 15 8 24 -1 35 -16 20 -489 20 -534 0z"/>
<path d="M1546 2757 c-11 -8 -15 -19 -10 -30 5 -15 21 -17 110 -17 56 0 126
-5 155 -11 80 -17 151 -91 169 -174 5 -24 11 -29 35 -30 25 0 30 -4 30 -25 0
-21 -5 -25 -27 -25 -16 1 -24 -3 -19 -8 13 -13 42 -5 54 14 7 12 6 36 -6 84
-31 125 -115 206 -232 225 -87 14 -238 13 -259 -3z"/>
<path d="M2856 2344 c-14 -13 -16 -57 -16 -327 0 -371 -3 -358 103 -365 79 -5
107 7 107 49 0 23 -6 32 -27 40 -15 5 -39 9 -53 8 -67 -4 -63 -14 -58 149 5
162 13 193 69 257 41 46 100 74 155 75 49 0 104 10 104 19 0 11 -140 12 -195
1 -29 -6 -70 -22 -89 -35 l-36 -24 0 74 c0 63 -3 76 -19 85 -25 13 -27 13 -45
-6z"/>
<path d="M2137 2312 c-15 -17 -17 -57 -17 -375 0 -251 3 -364 12 -382 12 -27
38 -38 79 -34 13 2 46 -7 72 -20 97 -46 254 -38 325 15 66 51 67 57 70 389 3
254 1 303 -12 320 -12 16 -18 18 -33 9 -17 -10 -18 -36 -23 -317 l-5 -307 -28
-27 c-25 -26 -35 -28 -115 -31 -75 -3 -93 0 -132 20 -49 25 -84 70 -100 127
-5 20 -10 160 -10 317 0 259 -1 282 -18 297 -24 22 -45 21 -65 -1z"/>
<path d="M1330 2302 c-17 -5 -26 -16 -28 -35 -5 -41 26 -47 235 -47 150 0 191
-3 219 -16 39 -19 64 -59 64 -101 0 -38 -34 -91 -66 -103 -14 -6 -90 -10 -169
-10 -114 0 -144 -3 -148 -14 -11 -28 19 -34 170 -38 168 -3 183 -8 231 -79 21
-29 23 -44 20 -105 -4 -89 -31 -133 -102 -169 -47 -24 -59 -25 -222 -25 -184
0 -224 -7 -224 -39 0 -38 31 -43 238 -39 185 3 200 5 246 27 60 30 117 85 147
143 18 33 23 61 23 120 1 69 -2 80 -29 120 -17 24 -49 52 -72 64 l-42 21 30
22 c65 48 88 135 54 201 -18 35 -67 73 -115 90 -40 14 -421 24 -460 12z"/>
<path d="M3376 2295 c-72 -25 -127 -96 -106 -136 19 -35 60 -24 110 30 l45 48
149 6 c155 5 184 14 170 50 -5 15 -25 17 -168 17 -110 -1 -173 -5 -200 -15z"/>
<path d="M2750 2079 c0 -131 3 -198 10 -194 6 4 10 82 10 201 0 123 -4 194
-10 194 -6 0 -10 -74 -10 -201z"/>
<path d="M2035 1985 c-4 -145 -3 -270 2 -277 5 -8 10 5 15 37 10 75 9 493 -1
499 -4 3 -12 -113 -16 -259z"/>
<path d="M3467 2199 c-43 -25 -47 -62 -47 -387 0 -287 1 -310 18 -325 25 -23
46 -21 79 7 l28 24 5 307 5 307 45 39 45 39 -80 0 c-44 0 -88 -5 -98 -11z"/>
<path d="M3038 2032 c-16 -9 -28 -20 -28 -23 0 -12 43 -19 116 -19 77 0 99 11
83 42 -13 25 -131 25 -171 0z"/>
<path d="M2761 1692 c-2 -73 45 -153 109 -187 37 -19 108 -27 160 -18 38 7 45
12 48 34 l3 26 -106 5 c-86 4 -111 9 -133 25 -34 25 -64 75 -73 122 l-7 36 -1
-43z"/>
</g>
</svg>